<?xml version="1.0" standalone="no"?>
<!DOCTYPE svg PUBLIC "-//W3C//DTD SVG 20010904//EN"
 "http://www.w3.org/TR/2001/REC-SVG-20010904/DTD/svg10.dtd">
<svg version="1.0" xmlns="http://www.w3.org/2000/svg"
 width="500.000000pt" height="500.000000pt" viewBox="0 0 500.000000 500.000000"
 preserveAspectRatio="xMidYMid meet">

<g transform="translate(0.000000,500.000000) scale(0.100000,-0.100000)"
fill="#000000" stroke="none">
<path d="M2315 4989 c-421 -31 -842 -175 -1191 -408 -159 -106 -236 -169 -377
-308 -209 -206 -359 -414 -487 -678 -153 -314 -224 -585 -250 -944 -51 -702
222 -1414 737 -1923 772 -764 1938 -942 2902 -442 472 245 853 635 1094 1119
184 371 278 843 248 1242 -28 359 -98 632 -237 922 -81 169 -145 277 -249 416
-384 516 -932 856 -1560 969 -230 42 -408 51 -630 35z m-934 -1941 c23 -73 82
-259 131 -413 50 -154 98 -307 108 -340 10 -33 25 -80 32 -105 l14 -45 70 210
c39 116 109 324 155 462 l84 253 103 0 c56 0 102 -1 102 -2 1 -24 310 -918
314 -908 3 8 27 87 54 175 27 88 97 314 157 503 l109 342 123 0 c68 0 123 -4
123 -9 0 -5 -61 -193 -135 -418 -74 -224 -178 -540 -231 -701 l-96 -292 -107
0 -106 0 -99 288 c-54 158 -122 359 -152 446 -30 87 -56 161 -58 163 -2 3 -20
-44 -40 -104 -19 -59 -77 -232 -129 -383 -52 -151 -104 -305 -116 -342 l-23
-68 -107 0 -107 0 -226 688 c-125 378 -230 697 -233 710 -6 22 -6 22 119 22
l125 0 42 -132z m2422 25 c10 -153 8 -791 -2 -903 -19 -202 -110 -337 -270
-401 -69 -27 -247 -38 -332 -20 -123 26 -278 128 -331 218 l-17 29 82 82 82
82 48 -60 c113 -142 339 -175 436 -64 57 65 61 97 61 531 l0 393 -216 0 c-169
0 -215 3 -212 13 4 10 50 152 63 195 3 9 73 12 303 12 l299 0 6 -107z m-2733
-257 l0 -114 -115 -96 c-63 -53 -115 -101 -115 -105 0 -8 168 -155 213 -186
16 -11 17 -26 15 -130 l-3 -117 -180 147 c-274 225 -275 225 -275 285 0 47 23
80 102 142 84 69 142 116 256 211 51 42 95 77 98 77 2 0 4 -51 4 -114z m2963
37 c107 -90 165 -138 255 -211 77 -61 102 -95 102 -139 0 -55 -19 -78 -137
-175 -64 -51 -160 -130 -215 -175 -55 -46 -102 -83 -104 -83 -2 0 -4 51 -4
114 l0 114 119 99 c66 54 120 100 120 103 0 3 -54 49 -120 104 l-119 98 0 114
c0 63 2 114 5 114 3 0 47 -35 98 -77z"/>
</g>
</svg>
